<?xml version="1.0" encoding="utf-8"?>
<!-- Generator: Adobe Illustrator 22.0.1, SVG Export Plug-In . SVG Version: 6.00 Build 0)  -->
<svg version="1.1" id="Layer_1" xmlns="http://www.w3.org/2000/svg" xmlns:xlink="http://www.w3.org/1999/xlink" x="0px" y="0px"
	 viewBox="0 0 23.5 23.5" style="enable-background:new 0 0 23.5 23.5;" xml:space="preserve">
<style type="text/css">
	.st0{fill:none;stroke:#231F20;stroke-width:1.07;stroke-miterlimit:10;}
	.st1{fill:none;stroke:#231F20;stroke-width:1.07;stroke-linecap:round;stroke-miterlimit:10;}
</style>
<g id="Layer_2_1_">
	<g id="Layer_1-2">
		<ellipse transform="matrix(0.9021 -0.4315 0.4315 0.9021 -3.5781 6.3172)" class="st0" cx="12.1" cy="11" rx="3.9" ry="7.7"/>
		<path class="st0" d="M7.4,6.1l-3.8,6c-0.3,0.5-0.4,1.2-0.1,1.8L5,16.7c0.3,0.6,0.8,0.9,1.5,0.9l7.1,0.4"/>
		<path class="st0" d="M5.5,17.5l-1.4,0.7c-1.2,0.6-2.6,0.2-3.3-1l0,0c-0.6-1.2-0.2-2.6,1-3.3l1.4-0.7"/>
		<path class="st0" d="M6.5,17.7l1.3,2.1c0.4,0.7,0.1,1.6-0.7,2c0,0,0,0,0,0l0,0c-0.7,0.4-1.6,0.1-2-0.6c0,0,0-0.1,0-0.1l-1.2-2.7"/>
		<path class="st1" d="M9.8,9.4c1.1-0.7,2.6-0.4,3.3,0.8v0.1c0.7,1.1,0.4,2.6-0.8,3.3"/>
		<line class="st1" x1="15.3" y1="3.5" x2="16.4" y2="1.6"/>
		<line class="st1" x1="19.5" y1="7.6" x2="22.9" y2="5.9"/>
		<line class="st1" x1="20.6" y1="13" x2="22.9" y2="13.4"/>
	</g>
</g>
</svg>
